<svg width="109" height="43" viewBox="0 0 109 43" fill="none" xmlns="http://www.w3.org/2000/svg">
<path d="M64.9315 11.4285C62.1883 8.68528 58.9316 6.50918 55.3475 5.02458C51.7633 3.53998 47.9219 2.77588 44.0424 2.77588C40.1629 2.77588 36.3215 3.53998 32.7373 5.02458C29.1532 6.50918 25.8965 8.68528 23.1533 11.4285L44.0424 32.3175L64.9315 11.4285Z" fill="#FFD200"/>
<path d="M44.0684 32.3476C46.8116 35.0908 50.0682 37.2668 53.6524 38.7514C57.2365 40.236 61.078 41.0001 64.9575 41.0001C68.8368 41.0001 72.6788 40.236 76.2628 38.7514C79.8468 37.2668 83.1038 35.0908 85.8468 32.3476L64.9575 11.4585L44.0684 32.3476Z" fill="#06E07F"/>
<path d="M44.0175 32.3427C41.2743 35.0859 38.0176 37.2619 34.4335 38.7465C30.8493 40.2311 27.0079 40.9952 23.1284 40.9952C19.2489 40.9952 15.4075 40.2311 11.8233 38.7465C8.23916 37.2619 4.98246 35.0859 2.23926 32.3427L23.1284 11.4536L44.0175 32.3427Z" fill="#E3073C"/>
<path d="M64.9834 11.4328C67.7263 8.68957 70.9833 6.51357 74.5673 5.02897C78.1513 3.54437 81.9933 2.78027 85.8723 2.78027C89.7523 2.78027 93.5933 3.54437 97.1773 5.02897C100.761 6.51357 104.018 8.68957 106.761 11.4328L85.8723 32.3219L64.9834 11.4328Z" fill="#1F84EF"/>
</svg>
