<svg width="22" height="26" viewBox="0 0 22 26" fill="none" xmlns="http://www.w3.org/2000/svg">
<path d="M14.5954 12.35C14.5954 13.143 14.0297 13.793 13.3131 13.793C12.6091 13.793 12.0309 13.143 12.0309 12.35C12.0309 11.557 12.5966 10.907 13.3131 10.907C14.0297 10.907 14.5954 11.557 14.5954 12.35ZM8.72457 10.907C8.008 10.907 7.44229 11.557 7.44229 12.35C7.44229 13.143 8.02057 13.793 8.72457 13.793C9.44114 13.793 10.0069 13.143 10.0069 12.35C10.0194 11.557 9.44114 10.907 8.72457 10.907ZM22 2.678V26C18.8329 23.1058 19.8458 24.0638 16.1669 20.527L16.8331 22.932H2.57714C1.15657 22.932 0 21.736 0 20.254V2.678C0 1.196 1.15657 0 2.57714 0H19.4229C20.8434 0 22 1.196 22 2.678ZM18.4171 15.002C18.4171 10.816 16.6069 7.423 16.6069 7.423C14.7966 6.019 13.0743 6.058 13.0743 6.058L12.8983 6.266C15.0354 6.942 16.0286 7.917 16.0286 7.917C13.0423 6.22451 9.53445 6.22421 6.63771 7.54C6.17257 7.761 5.896 7.917 5.896 7.917C5.896 7.917 6.93943 6.89 9.20229 6.214L9.07657 6.058C9.07657 6.058 7.35429 6.019 5.544 7.423C5.544 7.423 3.73371 10.816 3.73371 15.002C3.73371 15.002 4.78971 16.887 7.568 16.978C7.568 16.978 8.03314 16.393 8.41029 15.899C6.81371 15.405 6.21029 14.365 6.21029 14.365C6.39522 14.4989 6.70018 14.6724 6.72571 14.69C8.84763 15.9188 11.8617 16.3214 14.5703 15.145C15.0103 14.976 15.5006 14.729 16.016 14.378C16.016 14.378 15.3874 15.444 13.7406 15.925C14.1177 16.419 14.5703 16.978 14.5703 16.978C17.3486 16.887 18.4171 15.002 18.4171 15.002Z" fill="white"/>
</svg>
