<svg width="209" height="226" viewBox="0 0 209 226" fill="none" xmlns="http://www.w3.org/2000/svg">
<path d="M113.389 151.223L63.9551 111.832L110.686 49.6533L173.634 61.2413L113.389 151.223Z" fill="#6764F7"/>
<path d="M118.32 97.782L110.156 93.2882L117.34 87.0121L189.154 80.4759C189.722 80.4227 190.296 80.4823 190.841 80.6514C191.387 80.8204 191.893 81.0956 192.332 81.4611C192.771 81.8266 193.133 82.2752 193.398 82.7811C193.663 83.287 193.825 83.8402 193.875 84.409L194.067 86.5245C194.171 87.672 193.815 88.8138 193.078 89.6991C192.34 90.5844 191.282 91.1407 190.134 91.2458L118.32 97.782Z" fill="#800080"/>
<path d="M162.361 102.918L153.985 100.336L144.345 89.404C143.486 88.429 142.295 87.8091 141.004 87.6654C139.713 87.5216 138.414 87.8643 137.362 88.6266V88.6266C136.765 89.0609 136.267 89.6168 135.9 90.2577C135.534 90.8986 135.307 91.6098 135.236 92.3446C135.164 93.0794 135.249 93.821 135.485 94.5206C135.72 95.2202 136.102 95.8619 136.604 96.4034L149.47 108.777L150.101 121.54L165.484 130.607" stroke="#232A3E" stroke-width="3" stroke-miterlimit="10"/>
<path d="M169.062 91.4438L158.576 102.132" stroke="#232A3E" stroke-width="3" stroke-miterlimit="10"/>
<path d="M184.285 91.9312L186.752 95.6557L174.582 128.315" stroke="#232A3E" stroke-width="3" stroke-miterlimit="10"/>
<path d="M146.265 84.6283L160.48 77.144L172.908 78.474L176.291 81.5918" stroke="#232A3E" stroke-width="3" stroke-miterlimit="10"/>
<path d="M75.9274 98.4672C75.9274 98.4672 81.3096 96.0294 89.1379 93.0877C96.9661 90.146 94.7612 81.5918 94.7612 81.5918L79.8415 87.4616L63.7001 92.1098L57.0908 110.705" stroke="#232A3E" stroke-width="3" stroke-miterlimit="10"/>
<path d="M71.5212 97.7334C71.5212 97.7334 81.7954 107.756 67.3633 124.639" stroke="#232A3E" stroke-width="3" stroke-miterlimit="10"/>
<path d="M24.1201 75.5543L53.3338 1.63837C53.3338 1.63837 97.8816 -2.75249 87.7699 37.9354L94.3467 47.099L81.6157 50.3008L58.5915 130.458" stroke="#232A3E" stroke-width="3" stroke-miterlimit="10"/>
<path d="M69.4862 100.954C69.4862 100.954 48.312 59.9818 23.4783 88.3585C-1.35535 116.735 21.5037 180.81 41.9763 216.715C62.4489 252.619 102.804 134.45 108.432 155.844C114.061 177.237 89.8667 221.124 124.533 201.351C159.199 181.577 206.372 156.881 207.03 153.233C207.688 149.584 181.744 161.63 179.672 162.813C177.6 163.997 217.64 141.165 203.257 146.631C188.874 152.098 172.31 160.446 172.31 160.446C172.31 160.446 216.939 136.095 205.679 140.326C194.418 144.557 172.256 155.554 172.256 155.554C172.256 155.554 211.871 136.796 201.556 138.849C191.241 140.903 168.073 153.016 168.073 153.016C168.073 153.016 206.266 131.782 196.377 133.6C186.487 135.417 163.485 146.873 163.485 146.873C163.485 146.873 130.877 169.293 134.306 158.041C137.735 146.789 146.495 100.778 62.1617 118.788C-22.172 136.799 -0.477724 62.6418 20.6694 68.0809" stroke="#232A3E" stroke-width="3" stroke-miterlimit="10"/>
<path d="M105.953 65.6812L151.525 75.3378" stroke="#232A3E" stroke-width="3" stroke-miterlimit="10"/>
<path d="M99.3887 75.3374L126.037 81.516" stroke="#232A3E" stroke-width="3" stroke-miterlimit="10"/>
<path d="M93.5967 86.1509L107.498 91.5575" stroke="#232A3E" stroke-width="3" stroke-miterlimit="10"/>
<path d="M82.7832 95.4175L128.352 111.253" stroke="#232A3E" stroke-width="3" stroke-miterlimit="10"/>
<path d="M79.3076 106.618L112.904 128.245" stroke="#232A3E" stroke-width="3" stroke-miterlimit="10"/>
<path d="M14.5412 25.3183C16.6027 25.3183 18.2739 23.6471 18.2739 21.5857C18.2739 19.5242 16.6027 17.853 14.5412 17.853C12.4798 17.853 10.8086 19.5242 10.8086 21.5857C10.8086 23.6471 12.4798 25.3183 14.5412 25.3183Z" fill="#800080"/>
<path d="M113.584 15.5993C115.275 15.5993 116.645 14.2289 116.645 12.5384C116.645 10.8479 115.275 9.47754 113.584 9.47754C111.894 9.47754 110.523 10.8479 110.523 12.5384C110.523 14.2289 111.894 15.5993 113.584 15.5993Z" fill="#494993"/>
<path d="M19.6565 135.821C21.7179 135.821 23.3891 134.15 23.3891 132.088C23.3891 130.027 21.7179 128.356 19.6565 128.356C17.595 128.356 15.9238 130.027 15.9238 132.088C15.9238 134.15 17.595 135.821 19.6565 135.821Z" fill="#494993"/>
<path d="M56.1819 167.941C58.2433 167.941 59.9145 166.27 59.9145 164.208C59.9145 162.147 58.2433 160.476 56.1819 160.476C54.1204 160.476 52.4492 162.147 52.4492 164.208C52.4492 166.27 54.1204 167.941 56.1819 167.941Z" fill="#800080"/>
</svg>
