<svg width="23" height="23" viewBox="0 0 23 23" fill="none" xmlns="http://www.w3.org/2000/svg">
<path d="M20.6358 5.73201C20.6504 5.98356 20.6504 6.23517 20.6504 6.48672C20.6504 14.1593 15.9074 23 7.2386 23C4.5679 23 2.08694 22.0476 0 20.3946C0.379457 20.4484 0.744269 20.4664 1.13832 20.4664C3.34198 20.4664 5.37057 19.55 6.9905 17.9867C4.91816 17.9328 3.18147 16.2617 2.58311 13.9617C2.87501 14.0156 3.16687 14.0515 3.47337 14.0515C3.89658 14.0515 4.31984 13.9796 4.71385 13.8539C2.55395 13.3148 0.933974 10.9789 0.933974 8.1578V8.08595C1.56149 8.51721 2.29125 8.78673 3.06467 8.82263C1.795 7.78042 0.963174 6.00154 0.963174 3.98902C0.963174 2.91092 1.19663 1.92264 1.60529 1.06013C3.92574 4.582 7.41371 6.88196 11.3248 7.13357C11.2519 6.70232 11.2081 6.25314 11.2081 5.80391C11.2081 2.60544 13.3096 0 15.9219 0C17.2792 0 18.5051 0.700779 19.3661 1.83281C20.4314 1.58126 21.453 1.09608 22.3579 0.431253C22.0076 1.77894 21.2633 2.91097 20.2855 3.62967C21.2342 3.50395 22.1536 3.18044 23 2.73127C22.358 3.88122 21.5553 4.9054 20.6358 5.73201Z" fill="white"/>
</svg>
