<svg width="94" height="63" viewBox="0 0 94 63" fill="none" xmlns="http://www.w3.org/2000/svg">
<path d="M60.3504 30.8573C60.3504 46.8341 47.3789 59.7859 31.3778 59.7859C15.3768 59.7859 2.40527 46.8341 2.40527 30.8573C2.40527 14.8805 15.3768 1.92871 31.3778 1.92871C47.3789 1.92871 60.3504 14.8805 60.3504 30.8573Z" fill="#68DBFF"/>
<path d="M91.595 30.8573C91.595 46.8341 78.7505 59.7859 62.9063 59.7859C47.0622 59.7859 34.2178 46.8341 34.2178 30.8573C34.2178 14.8805 47.0622 1.92871 62.9063 1.92871C78.7505 1.92871 91.595 14.8805 91.595 30.8573Z" fill="#FF7917"/>
<path d="M47.2194 55.082C55.1262 49.9164 60.3499 40.9959 60.3499 30.8571C60.3499 20.7184 55.1262 11.7978 47.2194 6.63232C39.3902 11.7978 34.2178 20.7184 34.2178 30.8571C34.2178 40.9959 39.3902 49.9164 47.2194 55.082Z" fill="#5D2C02"/>
</svg>
