<svg width="22" height="23" viewBox="0 0 22 23" fill="none" xmlns="http://www.w3.org/2000/svg">
<path d="M18.636 1.92629C17.1933 1.01459 15.6669 0.366781 14.0973 0C13.9018 0.477365 13.6734 1.11942 13.5159 1.63021C11.8236 1.28655 10.1469 1.28655 8.48572 1.63021C8.32828 1.11954 8.0947 0.477365 7.89739 0C6.32628 0.36695 4.79862 1.0164 3.35516 1.93105C0.482791 7.79325 -0.295889 13.5097 0.093408 19.1452C1.99856 21.0666 3.84484 22.2339 5.66001 22.9977C6.11112 22.1598 6.5099 21.2728 6.85222 20.3458C6.20049 20.0107 5.5722 19.5977 4.97483 19.1118C5.13203 18.9544 5.28554 18.7904 5.43511 18.62C9.05497 20.9067 12.9882 20.9067 16.5649 18.62C16.7151 18.7893 16.8685 18.9533 17.0251 19.1118C16.4267 19.599 15.7973 20.0128 15.1442 20.3482C15.4885 21.279 15.8866 22.1669 16.3364 23C18.1533 22.2363 20.0013 21.0691 21.9065 19.1452C22.3633 12.6123 21.1262 6.9482 18.636 1.92617V1.92629ZM7.34541 15.6795C6.25873 15.6795 5.36756 14.3094 5.36756 12.641C5.36756 10.9726 6.23974 9.60011 7.34541 9.60011C8.45117 9.60011 9.34226 10.9701 9.32326 12.641C9.32498 14.3094 8.45117 15.6795 7.34541 15.6795ZM14.6545 15.6795C13.5678 15.6795 12.6767 14.3094 12.6767 12.641C12.6767 10.9726 13.5488 9.60011 14.6545 9.60011C15.7602 9.60011 16.6513 10.9701 16.6323 12.641C16.6323 14.3094 15.7602 15.6795 14.6545 15.6795Z" fill="white"/>
</svg>
